<svg width="319" height="199" viewBox="0 0 319 199" fill="none" xmlns="http://www.w3.org/2000/svg">
<path d="M301.518 159.201C299.358 164.316 293.434 167.689 284.292 169.274C275.177 170.855 263.012 170.629 248.633 168.69C219.881 164.811 182.392 154.099 142.989 137.463C103.586 120.827 69.7636 101.43 46.9326 83.5301C35.5141 74.5776 26.8683 66.0173 21.6441 58.3823C16.4047 50.7249 14.6904 44.1267 16.8499 39.0118C19.0095 33.8969 24.9337 30.5238 34.0756 28.9383C43.1908 27.3574 55.3554 27.5835 69.7348 29.5231C98.4861 33.4012 135.975 44.1134 175.378 60.7496C214.781 77.3858 248.604 96.7822 271.435 114.683C282.853 123.635 291.499 132.195 296.723 139.83C301.963 147.488 303.677 154.086 301.518 159.201Z" stroke="url(#paint0_linear_141_1782)"/>
<circle cx="159" cy="98" r="89" fill="#F2F6FF"/>
<path d="M145.48 59.6534C149.175 42.7823 172.825 42.7823 176.52 59.6534C178.263 67.6137 185.564 73.0075 193.548 72.2337C210.47 70.5937 217.778 93.4647 203.14 102.252C196.234 106.398 193.445 115.125 196.636 122.607C203.399 138.464 184.266 152.6 171.524 141.159C165.512 135.761 156.488 135.761 150.476 141.159C137.734 152.6 118.601 138.464 125.364 122.607C128.555 115.125 125.766 106.398 118.86 102.252C104.222 93.4647 111.53 70.5937 128.452 72.2337C136.436 73.0075 143.737 67.6137 145.48 59.6534Z" fill="#AFCAFF"/>
<path d="M146.497 97.9993L156.996 109.193L176.88 88.7517" stroke="white" stroke-width="6.40902" stroke-linecap="round"/>
<path d="M70.6796 67.7176C72.9993 65.072 77.3637 67.4422 76.4077 70.8284C75.9566 72.4262 76.7803 74.1221 78.3289 74.784C81.6108 76.1867 80.7391 81.0075 77.1848 81.1113C75.5077 81.1603 74.1458 82.4409 74.0083 84.0982C73.7169 87.6107 68.8138 88.22 67.5731 84.8979C66.9877 83.3304 65.3223 82.426 63.6887 82.7884C60.2267 83.5566 58.0681 79.1122 60.8556 76.9553C62.1709 75.9376 62.5035 74.098 61.6315 72.6646C59.7832 69.6269 63.3522 66.2708 66.3157 68.2599C67.714 69.1984 69.585 68.9659 70.6796 67.7176Z" fill="#6590FE"/>
<path d="M201.68 167.718C203.999 165.072 208.364 167.442 207.408 170.828C206.957 172.426 207.78 174.122 209.329 174.784C212.611 176.187 211.739 181.007 208.185 181.111C206.508 181.16 205.146 182.441 205.008 184.098C204.717 187.611 199.814 188.22 198.573 184.898C197.988 183.33 196.322 182.426 194.689 182.788C191.227 183.557 189.068 179.112 191.856 176.955C193.171 175.938 193.504 174.098 192.631 172.665C190.783 169.627 194.352 166.271 197.316 168.26C198.714 169.198 200.585 168.966 201.68 167.718Z" fill="#E6E6E6"/>
<circle cx="261.03" cy="106.03" r="5" transform="rotate(-13.5194 261.03 106.03)" fill="#6590FE"/>
<path d="M89.2412 148.414C89.9778 146.984 92.0222 146.984 92.7588 148.414C93.2015 149.273 94.2 149.687 95.1206 149.392C96.6525 148.902 98.098 150.348 97.6079 151.879C97.3134 152.8 97.727 153.799 98.5862 154.241C100.016 154.978 100.016 157.022 98.5862 157.759C97.727 158.201 97.3134 159.2 97.6079 160.121C98.098 161.652 96.6525 163.098 95.1206 162.608C94.2 162.313 93.2015 162.727 92.7588 163.586C92.0222 165.016 89.9778 165.016 89.2412 163.586C88.7985 162.727 87.8 162.313 86.8794 162.608C85.3475 163.098 83.902 161.652 84.3921 160.121C84.6866 159.2 84.273 158.201 83.4138 157.759C81.984 157.022 81.984 154.978 83.4138 154.241C84.273 153.799 84.6866 152.8 84.3921 151.879C83.902 150.348 85.3475 148.902 86.8794 149.392C87.8 149.687 88.7985 149.273 89.2412 148.414Z" fill="#CCDAFF"/>
<path d="M230.241 39.4138C230.978 37.984 233.022 37.984 233.759 39.4138C234.201 40.273 235.2 40.6866 236.121 40.3921C237.652 39.902 239.098 41.3475 238.608 42.8794C238.313 43.8 238.727 44.7985 239.586 45.2412C241.016 45.9778 241.016 48.0222 239.586 48.7588C238.727 49.2015 238.313 50.2 238.608 51.1206C239.098 52.6525 237.652 54.098 236.121 53.6079C235.2 53.3134 234.201 53.727 233.759 54.5862C233.022 56.016 230.978 56.016 230.241 54.5862C229.799 53.727 228.8 53.3134 227.879 53.6079C226.348 54.098 224.902 52.6525 225.392 51.1206C225.687 50.2 225.273 49.2015 224.414 48.7588C222.984 48.0222 222.984 45.9778 224.414 45.2412C225.273 44.7985 225.687 43.8 225.392 42.8794C224.902 41.3475 226.348 39.902 227.879 40.3921C228.8 40.6866 229.799 40.273 230.241 39.4138Z" fill="#CCDAFF"/>
<mask id="mask0_141_1782" style="mask-type:alpha" maskUnits="userSpaceOnUse" x="15" y="27" width="288" height="144">
<path d="M301.521 159.201C299.362 164.316 293.438 167.689 284.296 169.274C275.181 170.855 263.016 170.629 248.637 168.69C219.885 164.811 182.396 154.099 142.993 137.463C103.59 120.827 69.7675 101.43 46.9365 83.5301C35.518 74.5776 26.8722 66.0173 21.648 58.3823C16.4086 50.7249 14.6943 44.1267 16.8539 39.0118C19.0134 33.8969 24.9376 30.5238 34.0795 28.9383C43.1947 27.3574 55.3593 27.5835 69.7387 29.5231C98.49 33.4012 135.979 44.1134 175.382 60.7496C214.785 77.3858 248.608 96.7822 271.439 114.683C282.857 123.635 291.503 132.195 296.727 139.83C301.967 147.488 303.681 154.086 301.521 159.201Z" stroke="url(#paint1_linear_141_1782)"/>
</mask>
<g mask="url(#mask0_141_1782)">
<rect x="14.5039" y="35" width="333" height="123" transform="rotate(22.719 14.5039 35)" fill="url(#paint2_linear_141_1782)"/>
</g>
<defs>
<linearGradient id="paint0_linear_141_1782" x1="337.285" y1="132.398" x2="63.741" y2="-20.4582" gradientUnits="userSpaceOnUse">
<stop offset="0.278681" stop-color="#AFCAFF"/>
<stop offset="0.370945" stop-color="#6590FE"/>
<stop offset="1" stop-color="#CCDAFF"/>
</linearGradient>
<linearGradient id="paint1_linear_141_1782" x1="16.3932" y1="38.8173" x2="303.5" y2="139.5" gradientUnits="userSpaceOnUse">
<stop stop-color="#3F5AA2"/>
<stop offset="1" stop-color="#7A8399"/>
</linearGradient>
<linearGradient id="paint2_linear_141_1782" x1="371.164" y1="40.1537" x2="8.84588" y2="12.4343" gradientUnits="userSpaceOnUse">
<stop stop-color="#AFCAFF"/>
<stop offset="0.48" stop-color="#6590FE"/>
<stop offset="1" stop-color="#CCDAFF"/>
</linearGradient>
</defs>
</svg>
