<svg width="24" height="25" viewBox="0 0 24 25" fill="none" xmlns="http://www.w3.org/2000/svg">
<path d="M12 5.98573C15.79 5.98573 19.17 8.11573 20.82 11.4857C20.23 12.7057 19.4 13.7557 18.41 14.6057L19.82 16.0157C21.21 14.7857 22.31 13.2457 23 11.4857C21.27 7.09573 17 3.98573 12 3.98573C10.73 3.98573 9.51 4.18573 8.36 4.55573L10.01 6.20573C10.66 6.07573 11.32 5.98573 12 5.98573ZM10.93 7.12573L13 9.19573C13.57 9.44573 14.03 9.90573 14.28 10.4757L16.35 12.5457C16.43 12.2057 16.49 11.8457 16.49 11.4757C16.5 8.99573 14.48 6.98573 12 6.98573C11.63 6.98573 11.28 7.03573 10.93 7.12573ZM2.01 3.85573L4.69 6.53573C3.06 7.81573 1.77 9.51573 1 11.4857C2.73 15.8757 7 18.9857 12 18.9857C13.52 18.9857 14.98 18.6957 16.32 18.1657L19.74 21.5857L21.15 20.1757L3.42 2.43573L2.01 3.85573ZM9.51 11.3557L12.12 13.9657C12.08 13.9757 12.04 13.9857 12 13.9857C10.62 13.9857 9.5 12.8657 9.5 11.4857C9.5 11.4357 9.51 11.4057 9.51 11.3557ZM6.11 7.95573L7.86 9.70573C7.63 10.2557 7.5 10.8557 7.5 11.4857C7.5 13.9657 9.52 15.9857 12 15.9857C12.63 15.9857 13.23 15.8557 13.77 15.6257L14.75 16.6057C13.87 16.8457 12.95 16.9857 12 16.9857C8.21 16.9857 4.83 14.8557 3.18 11.4857C3.88 10.0557 4.9 8.87573 6.11 7.95573Z" fill="#999999"/>
</svg>
