<svg width="24" height="25" viewBox="0 0 24 25" fill="none" xmlns="http://www.w3.org/2000/svg">
<path d="M6.30897 9.84554C6.30859 9.65083 6.3764 9.46213 6.50063 9.31221C6.57059 9.22783 6.65651 9.15807 6.75347 9.10695C6.85042 9.05582 6.95651 9.02432 7.06566 9.01426C7.1748 9.0042 7.28487 9.01577 7.38953 9.0483C7.4942 9.08084 7.59143 9.13371 7.67563 9.20387L12.1423 12.9372L16.6173 9.33721C16.7025 9.26799 16.8006 9.21629 16.9059 9.1851C17.0112 9.15391 17.1216 9.14383 17.2308 9.15545C17.34 9.16706 17.4458 9.20014 17.5422 9.25279C17.6385 9.30543 17.7235 9.3766 17.7923 9.46221C17.8682 9.54843 17.9254 9.6494 17.9604 9.75879C17.9954 9.86817 18.0074 9.98361 17.9956 10.0979C17.9839 10.2121 17.9487 10.3227 17.8922 10.4227C17.8357 10.5227 17.7591 10.6099 17.6673 10.6789L12.6673 14.7039C12.5182 14.8264 12.3312 14.8934 12.1381 14.8934C11.9451 14.8934 11.7581 14.8264 11.609 14.7039L6.60897 10.5372C6.50812 10.4536 6.4284 10.3474 6.37628 10.2272C6.32415 10.1071 6.30109 9.9763 6.30897 9.84554Z" fill="#808080"/>
</svg>
