<svg width="48" height="48" viewBox="0 0 48 48" fill="none" xmlns="http://www.w3.org/2000/svg">
<g clip-path="url(#clip0_34_1450)">
<path d="M24.0001 1.10001C36.6474 1.10001 46.9001 11.3527 46.9001 24C46.9001 36.6473 36.6474 46.9 24.0001 46.9C11.3528 46.9 1.1001 36.6473 1.1001 24C1.1001 11.3527 11.3528 1.10001 24.0001 1.10001Z" stroke="#E0E0E0"/>
<mask id="mask0_34_1450" style="mask-type:luminance" maskUnits="userSpaceOnUse" x="14" y="14" width="20" height="20">
<path d="M34 14H14V34H34V14Z" fill="white"/>
</mask>
<g mask="url(#mask0_34_1450)">
<path d="M33.6 24.2267C33.6 23.5176 33.5364 22.8358 33.4182 22.1812H24V26.0494H29.3818C29.15 27.2994 28.4455 28.3584 27.3864 29.0675V31.5766H30.6182C32.5091 29.8357 33.6 27.2721 33.6 24.2267Z" fill="#4285F4"/>
<path d="M24.0009 33.9994C26.7009 33.9994 28.9645 33.1039 30.619 31.5767L27.3872 29.0676C26.4918 29.6676 25.3463 30.0221 24.0009 30.0221C21.3963 30.0221 19.1918 28.263 18.4054 25.8994H15.0645V28.4903C16.71 31.7585 20.0918 33.9994 24.0009 33.9994Z" fill="#34A853"/>
<path d="M18.4045 25.8987C18.2045 25.2987 18.0909 24.6578 18.0909 23.9987C18.0909 23.3396 18.2045 22.6987 18.4045 22.0987V19.5078H15.0636C14.3864 20.8578 14 22.3851 14 23.9987C14 25.6123 14.3864 27.1396 15.0636 28.4896L18.4045 25.8987Z" fill="#FBBC04"/>
<path d="M24.0009 17.9773C25.469 17.9773 26.7872 18.4818 27.8236 19.4727L30.6918 16.6045C28.96 14.9909 26.6963 14 24.0009 14C20.0918 14 16.71 16.2409 15.0645 19.5091L18.4054 22.1C19.1918 19.7364 21.3963 17.9773 24.0009 17.9773Z" fill="#E94235"/>
</g>
</g>
<defs>
<clipPath id="clip0_34_1450">
<rect width="48" height="48" fill="white"/>
</clipPath>
</defs>
</svg>
