<svg width="319" height="199" viewBox="0 0 319 199" fill="none" xmlns="http://www.w3.org/2000/svg">
<path d="M301.739 159.201C299.58 164.316 293.655 167.689 284.514 169.274C275.398 170.855 263.234 170.629 248.854 168.69C220.103 164.811 182.614 154.099 143.211 137.463C103.808 120.827 69.9853 101.43 47.1542 83.5301C35.7358 74.5776 27.09 66.0173 21.8658 58.3823C16.6264 50.7249 14.9121 44.1267 17.0716 39.0118C19.2312 33.8969 25.1554 30.5238 34.2973 28.9383C43.4125 27.3574 55.5771 27.5835 69.9564 29.5231C98.7077 33.4012 136.197 44.1134 175.6 60.7496C215.003 77.3858 248.826 96.7822 271.657 114.683C283.075 123.635 291.721 132.195 296.945 139.83C302.184 147.488 303.899 154.086 301.739 159.201Z" stroke="url(#paint0_linear_330_1962)"/>
<circle cx="161" cy="99" r="89" fill="#F2F6FF"/>
<mask id="mask0_330_1962" style="mask-type:alpha" maskUnits="userSpaceOnUse" x="15" y="27" width="288" height="144">
<path d="M301.518 159.201C299.358 164.316 293.434 167.689 284.292 169.274C275.177 170.855 263.012 170.629 248.633 168.69C219.881 164.811 182.392 154.099 142.989 137.463C103.586 120.827 69.7636 101.43 46.9326 83.5301C35.5141 74.5776 26.8683 66.0173 21.6441 58.3823C16.4047 50.7249 14.6904 44.1267 16.8499 39.0118C19.0095 33.8969 24.9337 30.5238 34.0756 28.9383C43.1908 27.3574 55.3554 27.5835 69.7348 29.5231C98.4861 33.4012 135.975 44.1134 175.378 60.7496C214.781 77.3858 248.604 96.7822 271.435 114.683C282.853 123.635 291.499 132.195 296.723 139.83C301.963 147.488 303.677 154.086 301.518 159.201Z" stroke="url(#paint1_linear_330_1962)"/>
</mask>
<g mask="url(#mask0_330_1962)">
<rect x="14.5" y="35" width="333" height="123" transform="rotate(22.719 14.5 35)" fill="url(#paint2_linear_330_1962)"/>
</g>
<path d="M70.6796 68.7176C72.9993 66.072 77.3637 68.4421 76.4077 71.8284V71.8284C75.9566 73.4261 76.7803 75.122 78.3289 75.7839V75.7839C81.6108 77.1866 80.7391 82.0075 77.1848 82.1112V82.1112C75.5077 82.1602 74.1458 83.4408 74.0083 85.0982V85.0982C73.7169 88.6107 68.8138 89.22 67.5731 85.8979V85.8979C66.9877 84.3304 65.3223 83.4259 63.6887 83.7884V83.7884C60.2267 84.5565 58.0681 80.1122 60.8556 77.9552V77.9552C62.1709 76.9375 62.5035 75.0979 61.6315 73.6646V73.6646C59.7832 70.6268 63.3522 67.2708 66.3157 69.2598V69.2598C67.714 70.1983 69.585 69.9658 70.6796 68.7176V68.7176Z" fill="#789EFF"/>
<path d="M201.68 168.718C203.999 166.072 208.364 168.442 207.408 171.828V171.828C206.957 173.426 207.78 175.122 209.329 175.784V175.784C212.611 177.187 211.739 182.007 208.185 182.111V182.111C206.508 182.16 205.146 183.441 205.008 185.098V185.098C204.717 188.611 199.814 189.22 198.573 185.898V185.898C197.988 184.33 196.322 183.426 194.689 183.788V183.788C191.227 184.557 189.068 180.112 191.856 177.955V177.955C193.171 176.938 193.504 175.098 192.631 173.665V173.665C190.783 170.627 194.352 167.271 197.316 169.26V169.26C198.714 170.198 200.585 169.966 201.68 168.718V168.718Z" fill="#E6E6E6"/>
<circle cx="261.03" cy="107.03" r="5" transform="rotate(-13.5194 261.03 107.03)" fill="#789EFF"/>
<path d="M89.2412 149.414C89.9778 147.984 92.0222 147.984 92.7588 149.414V149.414C93.2015 150.273 94.2 150.687 95.1206 150.392V150.392C96.6525 149.902 98.098 151.348 97.6079 152.879V152.879C97.3134 153.8 97.727 154.799 98.5862 155.241V155.241C100.016 155.978 100.016 158.022 98.5862 158.759V158.759C97.727 159.201 97.3134 160.2 97.6079 161.121V161.121C98.098 162.652 96.6525 164.098 95.1206 163.608V163.608C94.2 163.313 93.2015 163.727 92.7588 164.586V164.586C92.0222 166.016 89.9778 166.016 89.2412 164.586V164.586C88.7985 163.727 87.8 163.313 86.8794 163.608V163.608C85.3475 164.098 83.902 162.652 84.3921 161.121V161.121C84.6866 160.2 84.273 159.201 83.4138 158.759V158.759C81.984 158.022 81.984 155.978 83.4138 155.241V155.241C84.273 154.799 84.6866 153.8 84.3921 152.879V152.879C83.902 151.348 85.3475 149.902 86.8794 150.392V150.392C87.8 150.687 88.7985 150.273 89.2412 149.414V149.414Z" fill="#CCDAFF"/>
<path d="M230.241 40.4138C230.978 38.984 233.022 38.984 233.759 40.4138V40.4138C234.201 41.273 235.2 41.6866 236.121 41.3921V41.3921C237.652 40.902 239.098 42.3475 238.608 43.8794V43.8794C238.313 44.8 238.727 45.7985 239.586 46.2412V46.2412C241.016 46.9778 241.016 49.0222 239.586 49.7588V49.7588C238.727 50.2015 238.313 51.2 238.608 52.1206V52.1206C239.098 53.6525 237.652 55.098 236.121 54.6079V54.6079C235.2 54.3134 234.201 54.727 233.759 55.5862V55.5862C233.022 57.016 230.978 57.016 230.241 55.5862V55.5862C229.799 54.727 228.8 54.3134 227.879 54.6079V54.6079C226.348 55.098 224.902 53.6525 225.392 52.1206V52.1206C225.687 51.2 225.273 50.2015 224.414 49.7588V49.7588C222.984 49.0222 222.984 46.9778 224.414 46.2412V46.2412C225.273 45.7985 225.687 44.8 225.392 43.8794V43.8794C224.902 42.3475 226.348 40.902 227.879 41.3921V41.3921C228.8 41.6866 229.799 41.273 230.241 40.4138V40.4138Z" fill="#CCDAFF"/>
<path fill-rule="evenodd" clip-rule="evenodd" d="M139.076 74.1772C126.608 74.1772 116.5 84.285 116.5 96.7536C116.5 105.322 121.273 112.775 128.306 116.6V125.354C128.306 126.592 129.802 127.211 130.677 126.336L137.724 119.29C138.171 119.317 138.622 119.33 139.076 119.33H184.924C197.392 119.33 207.5 109.222 207.5 96.7536C207.5 84.285 197.392 74.1772 184.924 74.1772H139.076Z" fill="#AFCAFF"/>
<ellipse cx="143.597" cy="96.4064" rx="5.55726" ry="5.55725" fill="white"/>
<ellipse cx="163.047" cy="96.4064" rx="5.55726" ry="5.55725" fill="white"/>
<ellipse cx="182.498" cy="96.4064" rx="5.55726" ry="5.55725" fill="white"/>
<defs>
<linearGradient id="paint0_linear_330_1962" x1="337.507" y1="132.398" x2="63.9627" y2="-20.4582" gradientUnits="userSpaceOnUse">
<stop offset="0.278681" stop-color="#AFCAFF"/>
<stop offset="0.370945" stop-color="#6590FE"/>
<stop offset="1" stop-color="#CCDAFF"/>
</linearGradient>
<linearGradient id="paint1_linear_330_1962" x1="16.3893" y1="38.8173" x2="303.496" y2="139.5" gradientUnits="userSpaceOnUse">
<stop stop-color="#3F5AA2"/>
<stop offset="1" stop-color="#7A8399"/>
</linearGradient>
<linearGradient id="paint2_linear_330_1962" x1="371.16" y1="40.1537" x2="8.84198" y2="12.4343" gradientUnits="userSpaceOnUse">
<stop stop-color="#AFCAFF"/>
<stop offset="0.48" stop-color="#6590FE"/>
<stop offset="1" stop-color="#CCDAFF"/>
</linearGradient>
</defs>
</svg>
