<svg width="32" height="32" viewBox="0 0 32 32" fill="none" xmlns="http://www.w3.org/2000/svg">
<g clip-path="url(#clip0_99_1569)">
<rect width="32" height="32" rx="16" fill="#E0E0E0"/>
<mask id="path-3-inside-1_99_1569" fill="white">
<path fill-rule="evenodd" clip-rule="evenodd" d="M16.0001 20C19.5347 20 22.4001 17.1346 22.4001 13.6C22.4001 10.0654 19.5347 7.20001 16.0001 7.20001C12.4655 7.20001 9.6001 10.0654 9.6001 13.6C9.6001 17.1346 12.4655 20 16.0001 20ZM16.0001 42.4C21.7439 42.4 26.4001 37.7438 26.4001 32C26.4001 26.2563 21.7439 21.6 16.0001 21.6C10.2563 21.6 5.6001 26.2563 5.6001 32C5.6001 37.7438 10.2563 42.4 16.0001 42.4Z"/>
</mask>
<path fill-rule="evenodd" clip-rule="evenodd" d="M16.0001 20C19.5347 20 22.4001 17.1346 22.4001 13.6C22.4001 10.0654 19.5347 7.20001 16.0001 7.20001C12.4655 7.20001 9.6001 10.0654 9.6001 13.6C9.6001 17.1346 12.4655 20 16.0001 20ZM16.0001 42.4C21.7439 42.4 26.4001 37.7438 26.4001 32C26.4001 26.2563 21.7439 21.6 16.0001 21.6C10.2563 21.6 5.6001 26.2563 5.6001 32C5.6001 37.7438 10.2563 42.4 16.0001 42.4Z" fill="white"/>
<path d="M22.0001 13.6C22.0001 16.9137 19.3138 19.6 16.0001 19.6V20.4C19.7556 20.4 22.8001 17.3555 22.8001 13.6H22.0001ZM16.0001 7.60001C19.3138 7.60001 22.0001 10.2863 22.0001 13.6H22.8001C22.8001 9.84448 19.7556 6.80001 16.0001 6.80001V7.60001ZM10.0001 13.6C10.0001 10.2863 12.6864 7.60001 16.0001 7.60001V6.80001C12.2446 6.80001 9.2001 9.84448 9.2001 13.6H10.0001ZM16.0001 19.6C12.6864 19.6 10.0001 16.9137 10.0001 13.6H9.2001C9.2001 17.3555 12.2446 20.4 16.0001 20.4V19.6ZM26.0001 32C26.0001 37.5229 21.5229 42 16.0001 42V42.8C21.9648 42.8 26.8001 37.9647 26.8001 32H26.0001ZM16.0001 22C21.5229 22 26.0001 26.4772 26.0001 32H26.8001C26.8001 26.0353 21.9648 21.2 16.0001 21.2V22ZM6.0001 32C6.0001 26.4772 10.4772 22 16.0001 22V21.2C10.0354 21.2 5.2001 26.0353 5.2001 32H6.0001ZM16.0001 42C10.4773 42 6.0001 37.5229 6.0001 32H5.2001C5.2001 37.9647 10.0354 42.8 16.0001 42.8V42Z" fill="#DCDEE2" mask="url(#path-3-inside-1_99_1569)"/>
</g>
<rect x="0.2" y="0.2" width="31.6" height="31.6" rx="15.8" stroke="#E9EAED" stroke-width="0.4"/>
<defs>
<clipPath id="clip0_99_1569">
<rect width="32" height="32" rx="16" fill="white"/>
</clipPath>
</defs>
</svg>
