<svg width="91" height="24" viewBox="0 0 91 24" fill="none" xmlns="http://www.w3.org/2000/svg">
<path d="M8.06991 2.96145C8.93473 -0.987149 14.4698 -0.987149 15.3346 2.96145C15.7427 4.82454 17.4514 6.08693 19.3201 5.90582C23.2805 5.52198 24.9909 10.8748 21.565 12.9314C19.9485 13.9017 19.2959 15.9443 20.0427 17.6954C21.6255 21.4068 17.1475 24.7151 14.1654 22.0375C12.7583 20.7741 10.6462 20.7741 9.23912 22.0375C6.25698 24.7151 1.77901 21.4068 3.36184 17.6954C4.10867 15.9443 3.45599 13.9017 1.83953 12.9314C-1.58636 10.8748 0.124072 5.52198 4.08445 5.90582C5.9531 6.08693 7.66185 4.82454 8.06991 2.96145Z" fill="#AFCAFF"/>
<path d="M8.30789 11.9361L10.7651 14.5559L15.4188 9.77178" stroke="white" stroke-width="1.5" stroke-linecap="round"/>
<path d="M41.0168 9.72807H38.3128V10.8641H30.7608V4.38407H32.7128V5.96807H36.3448V4.38407H38.3128V5.31207H41.0168V3.90407H43.0648V11.2641H41.0168V9.72807ZM41.0168 8.09607V6.92807H38.3128V8.09607H41.0168ZM32.7128 7.69607V9.13607H36.3448V7.69607H32.7128ZM34.9688 16.2561V17.2321H43.5448V18.9281H32.9368V14.6241H41.0168V13.7281H32.8568V12.0801H43.0648V16.2561H34.9688ZM56.1887 9.72807H53.4847V10.8641H45.9327V4.38407H47.8847V5.96807H51.5167V4.38407H53.4847V5.31207H56.1887V3.90407H58.2367V11.2641H56.1887V9.72807ZM56.1887 8.09607V6.92807H53.4847V8.09607H56.1887ZM47.8847 7.69607V9.13607H51.5167V7.69607H47.8847ZM50.1407 16.2561V17.2321H58.7167V18.9281H48.1087V14.6241H56.1887V13.7281H48.0287V12.0801H58.2367V16.2561H50.1407ZM64.1285 10.3361H73.2165V12.0161H62.0965V4.52807H72.8965V6.24007H64.1285V7.40807H72.8965V9.07207H64.1285V10.3361ZM60.4485 13.3761H74.5285V15.1521H68.5125V19.0241H66.4645V15.1521H60.4485V13.3761ZM86.0684 11.0401H88.3084V12.8481H77.0284V11.0401H79.2684V6.67207H77.0284V4.83207H88.3084V6.67207H86.0684V11.0401ZM84.0844 6.67207H81.2524V11.0401H84.0844V6.67207ZM86.1484 13.6801V15.9361H89.7004V17.8081H75.6204V15.9361H79.1884V13.6801H81.1724V15.9361H84.1644V13.6801H86.1484Z" fill="#3E74FE"/>
</svg>
