<svg width="300" height="188" viewBox="0 0 300 188" fill="none" xmlns="http://www.w3.org/2000/svg">
<rect width="300" height="188" rx="10" fill="#5282FF"/>
<path d="M100.712 82.9309C101.86 77.6897 109.207 77.6897 110.355 82.9309C110.896 85.4039 113.164 87.0796 115.645 86.8392C120.902 86.3297 123.172 93.4349 118.625 96.1646C116.479 97.4527 115.613 100.164 116.604 102.488C118.705 107.415 112.761 111.806 108.803 108.252C106.935 106.575 104.131 106.575 102.264 108.252C98.3053 111.806 92.3614 107.415 94.4624 102.488C95.4537 100.164 94.5874 97.4527 92.4417 96.1646C87.8943 93.4349 90.1647 86.3297 95.4216 86.8392C97.9019 87.0796 100.17 85.4039 100.712 82.9309Z" fill="#AFCAFF"/>
<path d="M101.028 94.8437L104.289 98.3211L110.466 91.9708" stroke="white" stroke-width="1.99105" stroke-linecap="round"/>
<path d="M144.444 91.6749H140.855V93.1827H130.831V84.5814H133.422V86.684H138.243V84.5814H140.855V85.8132H144.444V83.9443H147.163V93.7137H144.444V91.6749ZM144.444 89.5086V87.9582H140.855V89.5086H144.444ZM133.422 88.9777V90.8891H138.243V88.9777H133.422ZM136.416 100.34V101.635H147.8V103.887H133.719V98.1737H144.444V96.9843H133.613V94.7968H147.163V100.34H136.416ZM164.583 91.6749H160.994V93.1827H150.97V84.5814H153.561V86.684H158.382V84.5814H160.994V85.8132H164.583V83.9443H167.301V93.7137H164.583V91.6749ZM164.583 89.5086V87.9582H160.994V89.5086H164.583ZM153.561 88.9777V90.8891H158.382V88.9777H153.561ZM156.555 100.34V101.635H167.939V103.887H153.858V98.1737H164.583V96.9843H153.752V94.7968H167.301V100.34H156.555ZM175.122 92.4819H187.185V94.7119H172.425V84.7726H186.76V87.045H175.122V88.5954H186.76V90.8041H175.122V92.4819ZM170.237 96.5171H188.927V98.8745H180.941V104.014H178.223V98.8745H170.237V96.5171ZM204.244 93.4164H207.218V95.8162H192.245V93.4164H195.218V87.6184H192.245V85.1761H207.218V87.6184H204.244V93.4164ZM201.611 87.6184H197.852V93.4164H201.611V87.6184ZM204.351 96.9206V99.9152H209.065V102.4H190.376V99.9152H195.112V96.9206H197.746V99.9152H201.717V96.9206H204.351Z" fill="white"/>
</svg>
