<svg width="24" height="24" viewBox="0 0 24 24" fill="none" xmlns="http://www.w3.org/2000/svg">
<path d="M17.691 14.1652C17.6914 14.3599 17.6236 14.5486 17.4994 14.6985C17.4294 14.7829 17.3435 14.8527 17.2465 14.9038C17.1496 14.9549 17.0435 14.9864 16.9343 14.9965C16.8252 15.0065 16.7151 14.995 16.6105 14.9624C16.5058 14.9299 16.4086 14.877 16.3244 14.8069L11.8577 11.0735L7.3827 14.6735C7.29746 14.7428 7.19938 14.7944 7.0941 14.8256C6.98881 14.8568 6.8784 14.8669 6.76921 14.8553C6.66002 14.8437 6.5542 14.8106 6.45784 14.758C6.36148 14.7053 6.27647 14.6341 6.2077 14.5485C6.13183 14.4623 6.07461 14.3613 6.03962 14.252C6.00463 14.1426 5.99263 14.0271 6.00436 13.9129C6.0161 13.7986 6.05133 13.6881 6.10783 13.5881C6.16433 13.4881 6.24089 13.4009 6.3327 13.3319L11.3327 9.30687C11.4818 9.1843 11.6688 9.11729 11.8619 9.11729C12.0549 9.11729 12.2419 9.1843 12.391 9.30687L17.391 13.4735C17.4919 13.5571 17.5716 13.6633 17.6237 13.7835C17.6758 13.9037 17.6989 14.0344 17.691 14.1652Z" fill="#808080"/>
</svg>
