<svg width="24" height="24" viewBox="0 0 24 24" fill="none" xmlns="http://www.w3.org/2000/svg">
<mask id="mask0_179_1731" style="mask-type:luminance" maskUnits="userSpaceOnUse" x="2" y="2" width="20" height="20">
<path fill-rule="evenodd" clip-rule="evenodd" d="M2.00092 2.00018H21.9605V21.95H2.00092V2.00018Z" fill="white"/>
</mask>
<g mask="url(#mask0_179_1731)">
<path fill-rule="evenodd" clip-rule="evenodd" d="M7.65092 3.5C5.12992 3.5 3.50092 5.227 3.50092 7.899V16.051C3.50092 18.724 5.12992 20.45 7.65092 20.45H16.3009C18.8279 20.45 20.4609 18.724 20.4609 16.051V7.899C20.4609 5.227 18.8279 3.5 16.3009 3.5H7.65092ZM16.3009 21.95H7.65092C4.27092 21.95 2.00092 19.579 2.00092 16.051V7.899C2.00092 4.371 4.27092 2 7.65092 2H16.3009C19.6859 2 21.9609 4.371 21.9609 7.899V16.051C21.9609 19.579 19.6859 21.95 16.3009 21.95Z" fill="#CCCCCC"/>
</g>
<path fill-rule="evenodd" clip-rule="evenodd" d="M5.28193 17.1804C5.09593 17.1804 4.91093 17.1124 4.76593 16.9744C4.46493 16.6904 4.45293 16.2144 4.73793 15.9154L6.26593 14.3024C7.07493 13.4434 8.43993 13.4014 9.30293 14.2114L10.2609 15.1834C10.5279 15.4534 10.9619 15.4584 11.2299 15.1944C11.3309 15.0754 13.5089 12.4304 13.5089 12.4304C13.9229 11.9284 14.5069 11.6184 15.1559 11.5544C15.8059 11.4974 16.4369 11.6864 16.9399 12.0994C16.9829 12.1344 17.0219 12.1684 19.2179 14.4234C19.5069 14.7194 19.5019 15.1944 19.2049 15.4834C18.9089 15.7744 18.4329 15.7654 18.1439 15.4694C18.1439 15.4694 16.0949 13.3664 15.9489 13.2244C15.7939 13.0974 15.5449 13.0234 15.2999 13.0474C15.0509 13.0724 14.8269 13.1914 14.6679 13.3844C12.3439 16.2034 12.3159 16.2304 12.2779 16.2674C11.4199 17.1094 10.0349 17.0954 9.19193 16.2354C9.19193 16.2354 8.26193 15.2914 8.24593 15.2724C8.01493 15.0584 7.60293 15.0724 7.35593 15.3334L5.82593 16.9464C5.67793 17.1024 5.47993 17.1804 5.28193 17.1804Z" fill="#CCCCCC"/>
<path fill-rule="evenodd" clip-rule="evenodd" d="M8.55811 8.12891C8.00511 8.12891 7.55511 8.57891 7.55511 9.13291C7.55511 9.68691 8.00511 10.1379 8.55911 10.1379C9.11311 10.1379 9.56411 9.68691 9.56411 9.13291C9.56411 8.57991 9.11311 8.12991 8.55811 8.12891ZM8.55911 11.6379C7.17811 11.6379 6.05511 10.5139 6.05511 9.13291C6.05511 7.75191 7.17811 6.62891 8.55911 6.62891C9.94111 6.62991 11.0641 7.75391 11.0641 9.13291C11.0641 10.5139 9.94011 11.6379 8.55911 11.6379Z" fill="#CCCCCC"/>
</svg>
